<svg width="648" height="648" viewBox="0 0 648 648" fill="none" xmlns="http://www.w3.org/2000/svg">
<path fill-rule="evenodd" clip-rule="evenodd" d="M531.624 0C542.817 0.000106115 546.805 13.912 538.897 21.832C538.714 22.015 538.53 22.1989 538.346 22.3838L518.787 41.9727C501.062 59.7245 492.195 68.6003 490.171 79.2608C489.345 83.6099 489.351 88.0782 490.177 92.4273C492.201 103.087 501.058 111.966 518.781 129.715C536.505 147.467 545.374 156.342 556.018 158.37C560.36 159.197 564.822 159.203 569.164 158.376C579.808 156.348 588.671 147.467 606.395 129.715L625.954 110.127C626.188 109.892 626.421 109.658 626.653 109.427C634.398 101.668 648 105.592 648 116.555C648 180.926 595.896 233.109 531.624 233.11C523.463 233.11 515.5 232.265 507.815 230.662C499.71 228.971 495.658 228.125 493.004 228.36C490.268 228.602 488.711 229.057 486.275 230.325C483.912 231.556 481.589 233.827 476.945 238.368L211.749 497.651C206.524 502.759 203.912 505.314 201.345 507.062C200.044 507.949 199.443 509.59 199.961 511.076C203.662 521.7 205.689 533.113 205.689 545.001C205.687 601.885 159.645 647.999 102.847 648C46.0489 647.999 0 601.88 0 544.994C0.00281033 488.112 46.0463 441.998 102.841 441.995C115.149 441.995 126.947 444.185 137.885 448.16C139.168 448.626 140.597 448.119 141.364 446.989C143.11 444.419 145.661 441.802 150.762 436.569L409.903 170.694C414.403 166.077 416.653 163.769 417.877 161.419C419.138 159 419.593 157.448 419.84 154.731C420.08 152.093 419.258 148.071 417.613 140.029C416.063 132.447 415.248 124.596 415.248 116.555C415.249 52.1848 467.352 0.000554179 531.624 0ZM128.558 495.579C124.245 491.26 122.083 489.094 119.282 488.342C116.482 487.593 113.532 488.391 107.646 489.971L73.6184 499.103C67.727 500.684 64.7799 501.479 62.7288 503.532C60.6784 505.586 59.8787 508.532 58.3002 514.432L49.1882 548.518C47.6097 554.418 46.8187 557.373 47.5684 560.178C48.3196 562.983 50.4765 565.145 54.7876 569.462L79.7033 594.416C84.0152 598.735 86.1725 600.894 88.973 601.647C91.7748 602.398 94.7226 601.606 100.615 600.024L134.649 590.898C140.54 589.317 143.487 588.523 145.538 586.469C147.588 584.415 148.376 581.457 149.955 575.556L159.073 541.476C160.65 535.58 161.447 532.627 160.699 529.823C159.948 527.017 157.787 524.852 153.473 520.533L128.558 495.579Z" fill="white"/>
</svg>
